<mxfile host="app.diagrams.net" agent="Mozilla/5.0 (X11; Linux x86_64; rv:138.0) Gecko/20100101 Firefox/138.0" version="27.0.5">
  <diagram name="Page-1" id="IeWfea8PD_CK1W2ntYuM">
    <mxGraphModel dx="1213" dy="1751" grid="1" gridSize="10" guides="1" tooltips="1" connect="1" arrows="1" fold="1" page="1" pageScale="1" pageWidth="850" pageHeight="1100" math="0" shadow="0">
      <root>
        <mxCell id="0" />
        <mxCell id="1" parent="0" />
        <mxCell id="4RdmzteivDXBpZ5fHV6Z-1" value="" style="shape=image;verticalLabelPosition=bottom;labelBackgroundColor=default;verticalAlign=top;aspect=fixed;imageAspect=0;image=https://blog.mozilla.org/opendesign/files/2018/07/firefox-logo.png;" parent="1" vertex="1">
          <mxGeometry x="260" y="160.99" width="52" height="53.7" as="geometry" />
        </mxCell>
        <mxCell id="4RdmzteivDXBpZ5fHV6Z-3" value="" style="shape=image;verticalLabelPosition=bottom;labelBackgroundColor=default;verticalAlign=top;aspect=fixed;imageAspect=0;image=https://upload.wikimedia.org/wikipedia/commons/thumb/a/a5/Google_Chrome_icon_%28September_2014%29.svg/1024px-Google_Chrome_icon_%28September_2014%29.svg.png;" parent="1" vertex="1">
          <mxGeometry x="260" y="240.99" width="54" height="54" as="geometry" />
        </mxCell>
        <mxCell id="4RdmzteivDXBpZ5fHV6Z-6" value="" style="ellipse;whiteSpace=wrap;html=1;direction=south;strokeColor=default;sketch=1;curveFitting=1;jiggle=2;opacity=50;fillColor=none;" parent="1" vertex="1">
          <mxGeometry x="240" y="70" width="100" height="300" as="geometry" />
        </mxCell>
        <mxCell id="4RdmzteivDXBpZ5fHV6Z-7" value="" style="html=1;shadow=0;dashed=0;align=center;verticalAlign=middle;shape=mxgraph.arrows2.twoWayArrow;dy=0.9;dx=21;fillColor=default;sketch=1;curveFitting=1;jiggle=2;" parent="1" vertex="1">
          <mxGeometry x="340" y="220.99" width="50" height="20" as="geometry" />
        </mxCell>
        <mxCell id="4RdmzteivDXBpZ5fHV6Z-9" value="" style="ellipse;whiteSpace=wrap;html=1;direction=south;strokeColor=default;sketch=1;curveFitting=1;jiggle=2;opacity=50;fillColor=none;" parent="1" vertex="1">
          <mxGeometry x="390" y="90.99" width="100" height="300" as="geometry" />
        </mxCell>
        <mxCell id="4RdmzteivDXBpZ5fHV6Z-11" value="Angular" style="text;html=1;align=center;verticalAlign=middle;whiteSpace=wrap;rounded=0;" parent="1" vertex="1">
          <mxGeometry x="410" y="160.99" width="60" height="30" as="geometry" />
        </mxCell>
        <mxCell id="4RdmzteivDXBpZ5fHV6Z-25" value="" style="html=1;shadow=0;dashed=0;align=center;verticalAlign=middle;shape=mxgraph.arrows2.twoWayArrow;dy=0.9;dx=21;fillColor=default;sketch=1;curveFitting=1;jiggle=2;" parent="1" vertex="1">
          <mxGeometry x="500" y="230" width="50" height="20" as="geometry" />
        </mxCell>
        <mxCell id="4RdmzteivDXBpZ5fHV6Z-27" value="" style="shape=image;verticalLabelPosition=bottom;labelBackgroundColor=default;verticalAlign=top;aspect=fixed;imageAspect=0;image=https://1000logos.net/wp-content/uploads/2020/08/Django-Logo.png;" parent="1" vertex="1">
          <mxGeometry x="580" y="196.62" width="110" height="68.75" as="geometry" />
        </mxCell>
        <mxCell id="4RdmzteivDXBpZ5fHV6Z-34" value="&lt;div&gt;&lt;br&gt;&lt;/div&gt;&lt;div&gt;&lt;br&gt;&lt;/div&gt;&lt;div&gt;&lt;br&gt;&lt;/div&gt;&lt;div&gt;&lt;br&gt;&lt;/div&gt;&lt;div&gt;&lt;br&gt;&lt;/div&gt;&lt;div&gt;&lt;br&gt;&lt;/div&gt;&lt;div&gt;APIs&lt;/div&gt;&lt;div&gt;&lt;br&gt;&lt;/div&gt;&lt;div&gt;YOLO12&lt;/div&gt;&lt;div&gt;CycleGAN&lt;/div&gt;&lt;div&gt;RealESRGAN&lt;/div&gt;" style="ellipse;whiteSpace=wrap;html=1;direction=south;strokeColor=default;sketch=1;curveFitting=1;jiggle=2;opacity=50;fillColor=none;" parent="1" vertex="1">
          <mxGeometry x="570" y="90.99" width="128.29" height="322.9" as="geometry" />
        </mxCell>
        <mxCell id="4RdmzteivDXBpZ5fHV6Z-35" value="MySQL" style="shape=cylinder3;whiteSpace=wrap;html=1;boundedLbl=1;backgroundOutline=1;size=15;fillColor=#dae8fc;strokeColor=#6c8ebf;" parent="1" vertex="1">
          <mxGeometry x="460" y="390.98999999999995" width="60" height="80" as="geometry" />
        </mxCell>
        <mxCell id="4RdmzteivDXBpZ5fHV6Z-39" value="" style="html=1;shadow=0;dashed=0;align=center;verticalAlign=middle;shape=mxgraph.arrows2.twoWayArrow;dy=0.9;dx=21;fillColor=default;sketch=1;curveFitting=1;jiggle=2;rotation=-60;" parent="1" vertex="1">
          <mxGeometry x="500" y="350" width="70" height="20" as="geometry" />
        </mxCell>
        <mxCell id="4RdmzteivDXBpZ5fHV6Z-46" value="User interface" style="rounded=1;whiteSpace=wrap;html=1;fillColor=#d5e8d4;strokeColor=#82b366;sketch=1;curveFitting=1;jiggle=2;shadow=1;" parent="1" vertex="1">
          <mxGeometry x="397.5" y="50" width="85" height="20" as="geometry" />
        </mxCell>
        <mxCell id="4RdmzteivDXBpZ5fHV6Z-51" value="Data services" style="rounded=1;whiteSpace=wrap;html=1;fillColor=#d5e8d4;strokeColor=#82b366;sketch=1;curveFitting=1;jiggle=2;shadow=1;" parent="1" vertex="1">
          <mxGeometry x="592.5" y="60" width="85" height="20" as="geometry" />
        </mxCell>
        <mxCell id="DVCERCdjxjVQqLodwpB3-1" value="" style="shape=image;verticalLabelPosition=bottom;labelBackgroundColor=default;verticalAlign=top;aspect=fixed;imageAspect=0;image=https://pbs.twimg.com/profile_images/1721593504118493184/UzPnGWvZ_400x400.jpg;" parent="1" vertex="1">
          <mxGeometry x="400" y="200.99" width="80" height="80" as="geometry" />
        </mxCell>
        <mxCell id="OxSwxGdpFxRYEjcHJIeK-1" value="s3 bucket" style="shape=cylinder3;whiteSpace=wrap;html=1;boundedLbl=1;backgroundOutline=1;size=15;fillColor=#dae8fc;strokeColor=#6c8ebf;" parent="1" vertex="1">
          <mxGeometry x="481.71" y="-50" width="60" height="80" as="geometry" />
        </mxCell>
        <mxCell id="OxSwxGdpFxRYEjcHJIeK-2" value="" style="html=1;shadow=0;dashed=0;align=center;verticalAlign=middle;shape=mxgraph.arrows2.twoWayArrow;dy=0.9;dx=21;fillColor=default;sketch=1;curveFitting=1;jiggle=2;rotation=-141;" parent="1" vertex="1">
          <mxGeometry x="537.11" y="7.24" width="80.37" height="39.64" as="geometry" />
        </mxCell>
      </root>
    </mxGraphModel>
  </diagram>
</mxfile>
